<svg width="21" height="20" viewBox="0 0 21 20" fill="none" xmlns="http://www.w3.org/2000/svg">
<g id="folder_copy">
<mask id="mask0_52_7" style="mask-type:alpha" maskUnits="userSpaceOnUse" x="0" y="0" width="21" height="20">
<rect id="Bounding box" x="0.5" width="20" height="20" fill="#D9D9D9"/>
</mask>
<g mask="url(#mask0_52_7)">
<path id="folder_copy_2" d="M3 17C2.59722 17 2.24653 16.8507 1.94792 16.5521C1.64931 16.2535 1.5 15.9028 1.5 15.5V5.5H3V15.5H16.5V17H3ZM6 14C5.59722 14 5.24653 13.8507 4.94792 13.5521C4.64931 13.2535 4.5 12.9028 4.5 12.5V3.5C4.5 3.0875 4.64931 2.73438 4.94792 2.44063C5.24653 2.14688 5.59722 2 6 2H9.52083L11.5208 4H17C17.4125 4 17.7656 4.14688 18.0594 4.44063C18.3531 4.73438 18.5 5.0875 18.5 5.5V12.5C18.5 12.9028 18.3531 13.2535 18.0594 13.5521C17.7656 13.8507 17.4125 14 17 14H6ZM6 12.5H17V5.5H10.9167L8.91667 3.5H6V12.5Z" fill="white"/>
</g>
</g>
</svg>
