<svg width="20" height="20" viewBox="0 0 20 20" fill="none" xmlns="http://www.w3.org/2000/svg">
<g id="group">
<mask id="mask0_15_122" style="mask-type:alpha" maskUnits="userSpaceOnUse" x="0" y="0" width="20" height="20">
<rect id="Bounding box" width="20" height="20" fill="#D9D9D9"/>
</mask>
<g mask="url(#mask0_15_122)">
<path id="group_2" d="M2.66516 15.423V13.987C2.66516 13.6717 2.74127 13.3934 2.89349 13.152C3.04572 12.9106 3.25843 12.7101 3.53162 12.5505C4.21245 12.1493 4.92891 11.8332 5.68099 11.6024C6.43322 11.3717 7.28898 11.2563 8.24829 11.2563C9.20773 11.2563 10.0635 11.3717 10.8156 11.6024C11.5678 11.8332 12.2843 12.1493 12.9652 12.5505C13.2384 12.7101 13.4511 12.9106 13.6033 13.152C13.7555 13.3934 13.8316 13.6717 13.8316 13.987V15.423H2.66516ZM15.3316 15.423V14.0511C15.3316 13.532 15.2325 13.0558 15.0341 12.6226C14.8356 12.1895 14.5737 11.8372 14.2483 11.5657C14.6404 11.6768 15.0285 11.8127 15.4127 11.9734C15.7967 12.1343 16.1752 12.3268 16.5481 12.5511C16.7842 12.6836 16.9743 12.8861 17.1185 13.1586C17.2627 13.4311 17.3347 13.7286 17.3347 14.0511V15.423H15.3316ZM8.24829 9.74342C7.52954 9.74342 6.91933 9.49259 6.41766 8.99092C5.91599 8.48912 5.66516 7.87884 5.66516 7.16009C5.66516 6.44134 5.91599 5.83113 6.41766 5.32946C6.91933 4.82766 7.52954 4.57675 8.24829 4.57675C8.96704 4.57675 9.57731 4.82766 10.0791 5.32946C10.5808 5.83113 10.8316 6.44134 10.8316 7.16009C10.8316 7.87884 10.5808 8.48912 10.0791 8.99092C9.57731 9.49259 8.96704 9.74342 8.24829 9.74342ZM14.1104 7.16009C14.1104 7.87884 13.8595 8.48912 13.3579 8.99092C12.8562 9.49259 12.246 9.74342 11.5272 9.74342C11.4749 9.74342 11.4455 9.74662 11.4391 9.753C11.4326 9.75939 11.4032 9.75675 11.351 9.74509C11.6518 9.39162 11.8905 8.99842 12.067 8.56551C12.2434 8.13259 12.3316 7.66384 12.3316 7.15926C12.3316 6.65453 12.2416 6.18766 12.0616 5.75863C11.8816 5.32974 11.6447 4.9353 11.351 4.5753C11.3872 4.57419 11.4166 4.57419 11.4391 4.5753C11.4615 4.57627 11.4909 4.57675 11.5272 4.57675C12.246 4.57675 12.8562 4.82766 13.3579 5.32946C13.8595 5.83113 14.1104 6.44134 14.1104 7.16009ZM3.74829 14.3397H12.7483V13.987C12.7483 13.8759 12.722 13.7781 12.6693 13.6938C12.6167 13.6097 12.5239 13.5311 12.391 13.4582C11.8024 13.1046 11.1656 12.8297 10.4808 12.6336C9.79593 12.4377 9.05176 12.3397 8.24829 12.3397C7.44495 12.3397 6.70086 12.4342 6.01599 12.6232C5.33113 12.8124 4.6944 13.0907 4.10579 13.4582C3.97287 13.5295 3.88009 13.6058 3.82745 13.6872C3.77468 13.7686 3.74829 13.8679 3.74829 13.9851V14.3397ZM8.25287 8.66009C8.66648 8.66009 9.01912 8.5128 9.31079 8.21821C9.60245 7.92363 9.74829 7.56946 9.74829 7.15571C9.74829 6.74196 9.60099 6.38925 9.30641 6.09759C9.01183 5.80592 8.65766 5.66009 8.24391 5.66009C7.83016 5.66009 7.47745 5.80745 7.18579 6.10217C6.89412 6.39675 6.74829 6.75092 6.74829 7.16467C6.74829 7.57828 6.89565 7.93092 7.19037 8.22259C7.48495 8.51425 7.83912 8.66009 8.25287 8.66009Z" fill="#1C1B1F"/>
</g>
</g>
</svg>
