<svg width="20" height="20" viewBox="0 0 20 20" fill="none" xmlns="http://www.w3.org/2000/svg">
<g id="nest_eco_leaf">
<mask id="mask0_15_116" style="mask-type:alpha" maskUnits="userSpaceOnUse" x="0" y="0" width="20" height="20">
<rect id="Bounding box" width="20" height="20" fill="#D9D9D9"/>
</mask>
<g mask="url(#mask0_15_116)">
<path id="nest_eco_leaf_2" d="M9.99998 15.5512C9.32081 15.5512 8.68102 15.4379 8.08061 15.2112C7.48019 14.9845 6.93623 14.6689 6.44873 14.2643L5.12665 15.5864C5.01304 15.7018 4.88581 15.7561 4.74498 15.7491C4.60415 15.7422 4.48297 15.6879 4.38144 15.5864C4.26602 15.4711 4.21179 15.343 4.21873 15.202C4.22568 15.0612 4.27991 14.934 4.38144 14.8206L5.68269 13.4983C5.27991 13.0112 4.96824 12.4724 4.74769 11.8818C4.52699 11.2911 4.41665 10.6531 4.41665 9.96785C4.41665 8.41758 4.95963 7.09945 6.04561 6.01348C7.13158 4.92751 8.45262 4.38452 10.0087 4.38452H15.5833V9.97369C15.5833 11.5341 15.0403 12.8538 13.9544 13.9326C12.8684 15.0117 11.5503 15.5512 9.99998 15.5512ZM9.99998 14.4679C11.25 14.4679 12.3125 14.0304 13.1875 13.1554C14.0625 12.2804 14.5 11.2179 14.5 9.96785V5.46785H9.99998C8.74998 5.46785 7.68748 5.90522 6.81248 6.77994C5.93748 7.65452 5.49998 8.7166 5.49998 9.96619C5.49998 10.4908 5.58477 10.9872 5.75436 11.4554C5.9238 11.9237 6.15949 12.3451 6.46144 12.7195L10.8814 8.32056C10.9781 8.21904 11.1011 8.16827 11.2504 8.16827C11.3997 8.16827 11.5262 8.21855 11.63 8.3191C11.743 8.42897 11.7996 8.55549 11.7996 8.69869C11.7996 8.84188 11.7419 8.97112 11.6266 9.0864L7.22748 13.4774C7.6047 13.7841 8.02984 14.0258 8.5029 14.2026C8.97609 14.3795 9.47512 14.4679 9.99998 14.4679Z" fill="#438823"/>
</g>
</g>
</svg>
