<svg width="20" height="20" viewBox="0 0 20 20" fill="none" xmlns="http://www.w3.org/2000/svg">
<g id="loyalty">
<mask id="mask0_14_247" style="mask-type:alpha" maskUnits="userSpaceOnUse" x="0" y="0" width="20" height="20">
<rect id="Bounding box" width="20" height="20" fill="#D9D9D9"/>
</mask>
<g mask="url(#mask0_14_247)">
<path id="loyalty_2" d="M10.6458 14.1344L13.2868 11.4453C13.4096 11.3225 13.4991 11.1831 13.5552 11.0271C13.6113 10.871 13.6393 10.7016 13.6393 10.519C13.6393 10.1697 13.5235 9.86657 13.2918 9.60963C13.0602 9.35268 12.7802 9.22421 12.4518 9.22421C12.1654 9.22421 11.8829 9.30491 11.6041 9.4663C11.3252 9.62755 11.0058 9.92345 10.6458 10.354C10.2672 9.91914 9.94718 9.62213 9.68579 9.46296C9.42454 9.3038 9.14947 9.22421 8.86058 9.22421C8.52072 9.22421 8.23093 9.35116 7.99121 9.60505C7.75135 9.85893 7.63142 10.1609 7.63142 10.5111C7.63142 10.6841 7.6642 10.8527 7.72975 11.0167C7.79545 11.1806 7.88711 11.3234 8.00475 11.4453L10.6458 14.1344ZM17.1939 11.6473L11.6683 17.1938C11.5308 17.3305 11.3813 17.4296 11.2198 17.4911C11.0582 17.5525 10.8903 17.5832 10.716 17.5832C10.5416 17.5832 10.3741 17.5525 10.2135 17.4911C10.0529 17.4296 9.90433 17.3305 9.76767 17.1938L2.80788 10.2419C2.66996 10.1094 2.57024 9.96227 2.50871 9.80046C2.44732 9.63866 2.41663 9.46845 2.41663 9.28984V3.76421C2.41663 3.39366 2.54746 3.07636 2.80913 2.81234C3.07093 2.54845 3.38933 2.4165 3.76433 2.4165H9.28996C9.46218 2.4165 9.62906 2.44692 9.79058 2.50775C9.95211 2.56845 10.1002 2.66574 10.2348 2.79963L17.1939 9.7515C17.3327 9.889 17.4336 10.035 17.4966 10.1894C17.5597 10.344 17.5912 10.5095 17.5912 10.6859C17.5912 10.8623 17.5595 11.0326 17.4962 11.1969C17.4329 11.3612 17.3321 11.5114 17.1939 11.6473ZM10.9023 16.4196L16.4279 10.894C16.4812 10.8407 16.5079 10.7779 16.5079 10.7057C16.5079 10.6336 16.4812 10.5709 16.4279 10.5175L9.40225 3.50775H3.76433C3.68961 3.50775 3.62683 3.53185 3.576 3.58005C3.52531 3.6281 3.49996 3.68949 3.49996 3.76421V9.29796C3.49996 9.33005 3.50531 9.36206 3.516 9.394C3.5267 9.42609 3.54538 9.45546 3.57204 9.48213L10.5256 16.4196C10.5791 16.4731 10.6418 16.4998 10.7139 16.4998C10.786 16.4998 10.8488 16.4731 10.9023 16.4196ZM5.52079 6.56546C5.81135 6.56546 6.05815 6.46421 6.26121 6.26171C6.46413 6.05921 6.56558 5.81324 6.56558 5.5238C6.56558 5.23227 6.46433 4.98449 6.26183 4.78046C6.05933 4.5763 5.81336 4.47421 5.52392 4.47421C5.23239 4.47421 4.98461 4.57595 4.78058 4.77942C4.57642 4.98289 4.47433 5.22998 4.47433 5.52067C4.47433 5.81123 4.57607 6.05803 4.77954 6.26109C4.98301 6.464 5.2301 6.56546 5.52079 6.56546Z" fill="#1C1B1F"/>
</g>
</g>
</svg>
