<svg width="20" height="20" viewBox="0 0 20 20" fill="none" xmlns="http://www.w3.org/2000/svg">
<g id="loyalty">
<mask id="mask0_8_2061" style="mask-type:alpha" maskUnits="userSpaceOnUse" x="0" y="0" width="20" height="20">
<rect id="Bounding box" width="20" height="20" fill="#D9D9D9"/>
</mask>
<g mask="url(#mask0_8_2061)">
<path id="loyalty_2" d="M10.6458 14.1347L13.2869 11.4455C13.4096 11.3227 13.4991 11.1833 13.5552 11.0274C13.6113 10.8713 13.6394 10.7019 13.6394 10.5192C13.6394 10.1699 13.5235 9.86682 13.2919 9.60987C13.0602 9.35293 12.7802 9.22446 12.4519 9.22446C12.1655 9.22446 11.8829 9.30515 11.6042 9.46654C11.3253 9.62779 11.0058 9.92369 10.6458 10.3542C10.2672 9.91939 9.94721 9.62237 9.68582 9.46321C9.42457 9.30404 9.1495 9.22446 8.86061 9.22446C8.52075 9.22446 8.23096 9.3514 7.99124 9.60529C7.75138 9.85918 7.63145 10.1612 7.63145 10.5113C7.63145 10.6844 7.66423 10.8529 7.72978 11.017C7.79548 11.1808 7.88714 11.3237 8.00478 11.4455L10.6458 14.1347ZM17.1939 11.6476L11.6683 17.194C11.5308 17.3307 11.3813 17.4298 11.2198 17.4913C11.0583 17.5527 10.8903 17.5834 10.716 17.5834C10.5416 17.5834 10.3741 17.5527 10.2135 17.4913C10.053 17.4298 9.90437 17.3307 9.7677 17.194L2.80791 10.2422C2.66999 10.1097 2.57027 9.96251 2.50874 9.80071C2.44735 9.6389 2.41666 9.46869 2.41666 9.29008V3.76446C2.41666 3.3939 2.54749 3.07661 2.80916 2.81258C3.07096 2.54869 3.38936 2.41675 3.76436 2.41675H9.28999C9.46221 2.41675 9.62909 2.44716 9.79062 2.508C9.95214 2.56869 10.1002 2.66598 10.2348 2.79987L17.1939 9.75175C17.3327 9.88925 17.4336 10.0352 17.4967 10.1897C17.5597 10.3442 17.5912 10.5097 17.5912 10.6861C17.5912 10.8625 17.5596 11.0329 17.4962 11.1972C17.4329 11.3615 17.3321 11.5116 17.1939 11.6476ZM10.9023 16.4199L16.4279 10.8942C16.4812 10.8409 16.5079 10.7781 16.5079 10.7059C16.5079 10.6338 16.4812 10.5711 16.4279 10.5178L9.40228 3.508H3.76436C3.68964 3.508 3.62686 3.53209 3.57603 3.58029C3.52534 3.62834 3.49999 3.68973 3.49999 3.76446V9.29821C3.49999 9.33029 3.50534 9.3623 3.51603 9.39425C3.52673 9.42633 3.54541 9.45571 3.57207 9.48237L10.5256 16.4199C10.5791 16.4733 10.6419 16.5001 10.7139 16.5001C10.786 16.5001 10.8488 16.4733 10.9023 16.4199ZM5.52082 6.56571C5.81138 6.56571 6.05818 6.46446 6.26124 6.26196C6.46416 6.05946 6.56561 5.81348 6.56561 5.52404C6.56561 5.23251 6.46437 4.98473 6.26187 4.78071C6.05937 4.57654 5.81339 4.47446 5.52395 4.47446C5.23242 4.47446 4.98464 4.57619 4.78061 4.77966C4.57645 4.98314 4.47436 5.23022 4.47436 5.52091C4.47436 5.81147 4.5761 6.05828 4.77957 6.26133C4.98305 6.46425 5.23013 6.56571 5.52082 6.56571Z" fill="#1C1B1F"/>
</g>
</g>
</svg>
