<svg width="21" height="20" viewBox="0 0 21 20" fill="none" xmlns="http://www.w3.org/2000/svg">
<g id="package_2">
<mask id="mask0_8_2047" style="mask-type:alpha" maskUnits="userSpaceOnUse" x="0" y="0" width="21" height="20">
<rect id="Bounding box" x="0.5" width="20" height="20" fill="#D9D9D9"/>
</mask>
<g mask="url(#mask0_8_2047)">
<path id="package_2_2" d="M9.75 16.0626V10.4376L5 7.68758V13.3126L9.75 16.0626ZM11.25 16.0626L16 13.3334V7.70842L11.25 10.4376V16.0626ZM9.75 17.8126L4.25 14.6251C4.0125 14.4879 3.82812 14.3069 3.69687 14.0822C3.56562 13.8576 3.5 13.608 3.5 13.3334V6.66675C3.5 6.39217 3.56562 6.14258 3.69687 5.918C3.82812 5.69328 4.0125 5.5123 4.25 5.37508L9.75 2.18758C9.98792 2.04869 10.2384 1.97925 10.5015 1.97925C10.7644 1.97925 11.0139 2.04869 11.25 2.18758L16.75 5.37508C16.9875 5.5123 17.1719 5.69328 17.3031 5.918C17.4344 6.14258 17.5 6.39217 17.5 6.66675V13.3334C17.5 13.608 17.4344 13.8576 17.3031 14.0822C17.1719 14.3069 16.9875 14.4879 16.75 14.6251L11.25 17.8126C11.0121 17.9515 10.7616 18.0209 10.4985 18.0209C10.2356 18.0209 9.98611 17.9515 9.75 17.8126ZM13.6667 7.29175L15.3958 6.31258L10.4792 3.50008L8.8125 4.47925L13.6667 7.29175ZM10.5 9.12508L12.2083 8.14592L7.27083 5.35425L5.60417 6.31258L10.5 9.12508Z" fill="white"/>
</g>
</g>
</svg>
