<svg width="21" height="20" viewBox="0 0 21 20" fill="none" xmlns="http://www.w3.org/2000/svg">
<g id="where_to_vote">
<mask id="mask0_8_2262" style="mask-type:alpha" maskUnits="userSpaceOnUse" x="0" y="0" width="21" height="20">
<rect id="Bounding box" x="0.5" width="20" height="20" fill="#D9D9D9"/>
</mask>
<g mask="url(#mask0_8_2262)">
<path id="where_to_vote_2" d="M9.79167 11L13.3333 7.45833L12.2708 6.39583L9.79167 8.875L8.72917 7.8125L7.66667 8.875L9.79167 11ZM10.5 16.0208C12.1528 14.5347 13.3993 13.1667 14.2396 11.9167C15.0799 10.6667 15.5 9.54861 15.5 8.5625C15.5 7.10417 15.0243 5.89583 14.0729 4.9375C13.1215 3.97917 11.9306 3.5 10.5 3.5C9.06944 3.5 7.87847 3.97917 6.92708 4.9375C5.97569 5.89583 5.5 7.10417 5.5 8.5625C5.5 9.54861 5.92014 10.6667 6.76042 11.9167C7.60069 13.1667 8.84722 14.5347 10.5 16.0208ZM10.5 18C8.31944 16.1806 6.69097 14.4896 5.61458 12.9271C4.53819 11.3646 4 9.90972 4 8.5625C4 6.70139 4.61806 5.14236 5.85417 3.88542C7.09028 2.62847 8.63889 2 10.5 2C12.3472 2 13.8924 2.62847 15.1354 3.88542C16.3785 5.14236 17 6.70139 17 8.5625C17 9.90972 16.4653 11.3611 15.3958 12.9167C14.3264 14.4722 12.6944 16.1667 10.5 18Z" fill="white"/>
</g>
</g>
</svg>
